<svg width="256" height="256" viewBox="0 0 256 256" class="icon">
  <path d="M93.3056662,128 L204.318437,222.534313 C212.307615,229.337597 213.268972,241.329258 206.465687,249.318437 C199.662403,257.307615 187.670742,258.268972 179.681563,251.465687 L51.9492021,142.693599 C51.4712991,142.300723 51.008962,141.881375 50.5642795,141.435721 C48.9929765,139.867843 47.7486912,138.080492 46.8387631,136.165219 C45.6055915,133.577644 44.9982994,130.784147 44.9996288,128 C44.9982994,125.215853 45.6055915,122.422356 46.8387631,119.834781 C47.7486934,117.919505 48.9929779,116.132155 50.5642795,114.564279 C51.008962,114.118625 51.4712991,113.699277 51.9492021,113.306401 L179.681563,4.53431261 C187.670742,-2.26897225 199.662403,-1.30761547 206.465687,6.68156308 C213.268972,14.6707416 212.307615,26.6624025 204.318437,33.4656874 L93.3056662,128 Z"></path>
</svg>