<svg width="256" height="256" viewBox="0 0 256 256" class="icon">    
  <path d="M210.98033,113.262742 C211.457392,113.655303 211.91898,114.074173 212.363027,114.519188 C213.939542,116.092274 215.187936,117.885492 216.100887,119.807011 C217.338272,122.403308 217.947686,125.206321 217.946358,128 C217.947686,130.793679 217.338272,133.596692 216.100887,136.192989 C215.187936,138.114508 213.939542,139.907726 212.363027,141.480812 C211.91898,141.925827 211.457392,142.344697 210.98033,142.737258 L83.429902,251.445009 C75.4167173,258.274428 63.3844098,257.314796 56.5549909,249.301611 C49.7255721,241.288426 50.685204,229.256119 58.6983888,222.4267 L169.492384,128 L58.6983888,33.5732999 C50.685204,26.743881 49.7255721,14.7115735 56.5549909,6.69838877 C63.3844098,-1.31479597 75.4167173,-2.27442786 83.429902,4.55499095 L210.98033,113.262742 Z"></path>
</svg>
