<svg width="256" height="256" viewBox="0 0 256 256" class="icon">
  <defs>
    <polygon id="path-1" points="0 0.074452381 235.925548 0.074452381 235.925548 235.971905 0 235.971905"></polygon>
  </defs>
  <g transform="translate(10.000000, 10.000000)">
    <g id="Group-3">
      <mask id="mask-2" fill="white">
        <use xlink:href="#path-1"></use>
      </mask>
      <g id="Clip-2"></g>
      <path d="M117.963008,0.074452381 C85.9260079,0.074452381 81.9088571,0.210246032 69.326873,0.784325397 C56.7711111,1.357 48.1959762,3.35129365 40.6926746,6.26757937 C32.9355794,9.28173016 26.3570794,13.3152698 19.7987143,19.8731667 C13.2408175,26.4315317 9.20727778,33.0100317 6.19312698,40.767127 C3.27684127,48.2704286 1.28254762,56.8455635 0.709873016,69.4013254 C0.135793651,81.9833095 0,86.0004603 0,118.03746 C0,150.073992 0.135793651,154.091143 0.709873016,166.673127 C1.28254762,179.228889 3.27684127,187.804024 6.19312698,195.307325 C9.20727778,203.064421 13.2408175,209.642921 19.7987143,216.201286 C26.3570794,222.759183 32.9355794,226.792722 40.6926746,229.807341 C48.1959762,232.723159 56.7711111,234.717452 69.326873,235.290127 C81.9088571,235.864206 85.9260079,236 117.963008,236 C149.99954,236 154.01669,235.864206 166.598675,235.290127 C179.154437,234.717452 187.729571,232.723159 195.232873,229.807341 C202.989968,226.792722 209.568468,222.759183 216.126833,216.201286 C222.68473,209.642921 226.71827,203.064421 229.732889,195.307325 C232.648706,187.804024 234.643,179.228889 235.215675,166.673127 C235.789754,154.091143 235.925548,150.073992 235.925548,118.03746 C235.925548,86.0004603 235.789754,81.9833095 235.215675,69.4013254 C234.643,56.8455635 232.648706,48.2704286 229.732889,40.767127 C226.71827,33.0100317 222.68473,26.4315317 216.126833,19.8731667 C209.568468,13.3152698 202.989968,9.28173016 195.232873,6.26757937 C187.729571,3.35129365 179.154437,1.357 166.598675,0.784325397 C154.01669,0.210246032 149.99954,0.074452381 117.963008,0.074452381 Z M117.963008,21.3289683 C149.460111,21.3289683 153.191159,21.4493095 165.629857,22.0168333 C177.131111,22.5412778 183.377151,24.4629921 187.533841,26.0784683 C193.04004,28.2183889 196.969627,30.7745873 201.097286,34.9027143 C205.225413,39.030373 207.781611,42.9599603 209.921532,48.4661587 C211.537008,52.6228492 213.458722,58.8688889 213.983167,70.3701429 C214.55069,82.8088413 214.671032,86.5398889 214.671032,118.03746 C214.671032,149.534563 214.55069,153.265611 213.983167,165.70431 C213.458722,177.205563 211.537008,183.451603 209.921532,187.608294 C207.781611,193.114492 205.225413,197.044079 201.097286,201.171738 C196.969627,205.299865 193.04004,207.856063 187.533841,209.995984 C183.377151,211.61146 177.131111,213.533175 165.629857,214.057619 C153.193032,214.625143 149.462452,214.745484 117.963008,214.745484 C86.4630952,214.745484 82.7329841,214.625143 70.2956905,214.057619 C58.7944365,213.533175 52.5483968,211.61146 48.3917063,209.995984 C42.8855079,207.856063 38.9559206,205.299865 34.8282619,201.171738 C30.7006032,197.044079 28.1439365,193.114492 26.0040159,187.608294 C24.3885397,183.451603 22.4668254,177.205563 21.942381,165.70431 C21.3748571,153.265611 21.2545159,149.534563 21.2545159,118.03746 C21.2545159,86.5398889 21.3748571,82.8088413 21.942381,70.3701429 C22.4668254,58.8688889 24.3885397,52.6228492 26.0040159,48.4661587 C28.1439365,42.9599603 30.7001349,39.030373 34.8282619,34.9027143 C38.9559206,30.7745873 42.8855079,28.2183889 48.3917063,26.0784683 C52.5483968,24.4629921 58.7944365,22.5412778 70.2956905,22.0168333 C82.7343889,21.4493095 86.4654365,21.3289683 117.963008,21.3289683 L117.963008,21.3289683 Z" mask="url(#mask-2)"></path>
    </g>
    <path d="M117.963008,157.358151 C96.2463254,157.358151 78.6418492,139.753675 78.6418492,118.03746 C78.6418492,96.3207778 96.2463254,78.7163016 117.963008,78.7163016 C139.679222,78.7163016 157.283698,96.3207778 157.283698,118.03746 C157.283698,139.753675 139.679222,157.358151 117.963008,157.358151 Z M117.963008,57.4617857 C84.5076667,57.4617857 57.3873333,84.582119 57.3873333,118.03746 C57.3873333,151.492333 84.5076667,178.612667 117.963008,178.612667 C151.417881,178.612667 178.538214,151.492333 178.538214,118.03746 C178.538214,84.582119 151.417881,57.4617857 117.963008,57.4617857 L117.963008,57.4617857 Z"></path>
    <path d="M195.087246,55.0685397 C195.087246,62.8865079 188.749429,69.2238571 180.93146,69.2238571 C173.11396,69.2238571 166.776143,62.8865079 166.776143,55.0685397 C166.776143,47.2505714 173.11396,40.912754 180.93146,40.912754 C188.749429,40.912754 195.087246,47.2505714 195.087246,55.0685397" id="Fill-5" fill="#000000"></path>
  </g>
</svg>
