<?xml version="1.0" encoding="UTF-8"?>
<svg width="273px" height="241px" viewBox="0 0 273 241" version="1.1" xmlns="http://www.w3.org/2000/svg" xmlns:xlink="http://www.w3.org/1999/xlink">
    <!-- Generator: Sketch 54.1 (76490) - https://sketchapp.com -->
    <title>Group 2</title>
    <desc>Created with Sketch.</desc>
    <g id="Homepage-Layout" stroke="none" stroke-width="1" fill="none" fill-rule="evenodd">
        <g id="UnMute-Homepage-v2-Copy" transform="translate(-955.000000, -622.000000)" fill="#B2BDCB">
            <g id="Group-2" transform="translate(955.000000, 622.000000)">
                <path d="M67.654106,33.9004038 C73.5170346,33.8630337 79.3794852,33.5597615 85.2385899,33.3556637 C87.6208527,33.2718206 90.016499,33.2603222 92.395416,33.1031764 C95.33405,32.9086606 98.27125,32.7122283 101.209884,32.5191498 C106.820438,32.1468868 112.444376,31.8757145 118.040112,31.3156431 C122.194255,30.9002608 126.346963,30.4829621 130.499194,30.0675798 C132.299274,29.8859997 134.097443,29.7063361 135.897046,29.5266725 C137.16322,29.3992311 138.455206,29.3096388 139.711821,29.1227887 C146.513506,28.1080485 153.313758,27.0885173 160.115443,26.0704235 C165.832587,25.2128291 171.534914,24.2436037 177.241064,23.3170185 C188.772383,21.4475586 200.322342,19.7088938 211.900025,18.1575583 C218.618541,17.258282 225.342794,16.4409323 232.07804,15.672451 C235.150031,15.4606875 238.222022,15.2513195 241.294013,15.039556 C243.984574,14.8560595 246.677047,14.7703001 249.373344,14.6653765 C254.795095,14.453613 260.224972,14.3903714 265.650547,14.3712073 C267.5945,14.3659372 269.433298,13.7033377 270.837609,12.3297494 C272.164965,11.0289848 272.953158,9.22468288 272.99761,7.36240952 C272.999044,7.30827088 273,7.25269493 273,7.19807719 C273,3.42849478 269.855834,-0.0124229602 266.005688,3.37177463e-05 C259.96734,0.0191978377 253.930904,0.129391528 247.89638,0.365110204 C244.996462,0.477220306 242.113752,0.636761604 239.218136,0.834631143 C235.932009,1.05980955 232.653052,1.26151192 229.381743,1.64144059 C223.188528,2.35817868 217.00105,3.06581381 210.822653,3.89274559 C204.812506,4.69572222 198.813353,5.52504951 192.816111,6.42720046 C187.186916,7.27090084 181.555809,8.10933109 175.935695,9.0210641 C169.914076,9.99747601 163.898194,11.0366504 157.86367,11.9402387 C150.799572,12.9995354 143.73404,14.048771 136.671377,15.1114214 C130.405031,15.7366508 124.138686,16.3666713 117.873774,16.9952544 C112.192479,17.5663452 106.473423,17.8202698 100.776832,18.1987612 C98.0805352,18.3765084 95.3828042,18.5523392 92.6865071,18.7358356 C90.070511,18.9116664 87.4344397,18.918853 84.8146197,19.0108407 C79.0171747,19.2149386 73.2202077,19.495693 67.4189388,19.5311466 C55.1500941,19.6097195 42.8850731,19.6624208 30.6162284,19.5910345 C28.4103409,19.5785778 26.2054095,19.5594137 24,19.542166 L24,33.9205261 C26.2804526,33.9382529 28.5609053,33.9540633 30.8418359,33.9679573 C43.1145045,34.040781 55.3833493,33.9770603 67.654106,33.9004038" id="Fill-1" transform="translate(148.500000, 17.000000) scale(-1, 1) translate(-148.500000, -17.000000) "></path>
                <path d="M41.7521475,64.030181 C43.8699592,64.1434609 45.9935283,64.1805782 48.1132591,64.246618 C52.4745884,64.3825539 56.835438,64.519936 61.1967673,64.6553899 C67.1625284,64.8433864 73.1335673,64.8419402 79.1012476,64.9055698 C81.8845338,64.9340103 84.6673402,64.9566663 87.4506264,64.9942656 C90.1590647,65.0280086 92.8804574,64.9036417 95.5884159,64.8607399 C99.9833308,64.7869874 104.380165,64.7156451 108.77508,64.6423747 C110.40782,64.6158624 112.032403,64.5932064 113.661304,64.508367 C121.219982,64.1222511 128.77866,63.7385454 136.335419,63.3524295 C142.797767,63.0251227 149.257716,62.6915495 155.720064,62.3603864 C161.736204,62.0533254 167.75954,61.9024462 173.779518,61.7028807 C186.226339,61.2921806 198.680357,61.1249119 211.128618,60.863163 C223.31827,60.6052703 235.50984,60.5185027 247.701891,60.4866879 C250.865174,60.4789752 254.030856,60.4731907 257.194619,60.4678883 C259.998537,60.4640319 262.837479,60.4110073 265.624603,60.7595239 C266.263689,60.6876996 266.902775,60.6163573 267.54378,60.545015 C268.80324,60.2249389 269.897651,59.610817 270.829411,58.7050595 C272.163719,57.3948685 272.95298,55.5814253 272.997601,53.7077268 C272.99904,53.6503638 273,53.5930007 273,53.5356377 C273,51.659047 272.258718,49.8215017 270.953198,48.4770856 C270.471485,48.094344 269.989771,47.7144947 269.508058,47.3322351 C268.420844,46.6805139 267.245828,46.3358537 265.978692,46.2982544 C263.041871,45.9309381 260.048915,46.0046906 257.095302,46.0085469 C253.62591,46.0138494 250.155079,46.0215621 246.685687,46.0292748 C241.016438,46.043736 235.34719,46.0702484 229.675543,46.13436 C216.815139,46.2794547 203.958094,46.5696442 191.099129,46.8217523 C179.051976,47.057471 167.000506,47.3413939 154.968706,47.957444 C141.099295,48.6670103 127.230364,49.3770587 113.363352,50.0813225 C111.597709,50.1714644 109.830627,50.1714644 108.064984,50.1999049 C103.585626,50.2731753 99.1043479,50.3469278 94.6249892,50.4201982 C92.3181386,50.4597257 90.0031316,50.5556521 87.6943619,50.531068 C84.4874174,50.4992532 81.2809527,50.463582 78.0759274,50.4298391 C72.213322,50.3676556 66.3511964,50.3449996 60.4905102,50.1623056 C54.1217219,49.9641862 47.7399792,49.8740443 41.3774283,49.529384 C35.0292711,49.1866519 28.6700787,48.9417744 22.3334367,48.4337018 C19.2205319,48.1830398 16.1095462,47.9304497 13,47.6667725 L13,62.1656413 C16.3230547,62.4432977 19.6475487,62.7064928 22.9725226,62.9740263 C29.2194431,63.4748682 35.4941917,63.6913052 41.7521475,64.030181" id="Fill-4" transform="translate(143.000000, 55.500000) scale(-1, 1) translate(-143.000000, -55.500000) "></path>
                <path d="M41.7521475,177.030181 C43.8699592,177.143461 45.9935283,177.180578 48.1132591,177.246618 C52.4745884,177.382554 56.835438,177.519936 61.1967673,177.65539 C67.1625284,177.843386 73.1335673,177.84194 79.1012476,177.90557 C81.8845338,177.93401 84.6673402,177.956666 87.4506264,177.994266 C90.1590647,178.028009 92.8804574,177.903642 95.5884159,177.86074 C99.9833308,177.786987 104.380165,177.715645 108.77508,177.642375 C110.40782,177.615862 112.032403,177.593206 113.661304,177.508367 C121.219982,177.122251 128.77866,176.738545 136.335419,176.352429 C142.797767,176.025123 149.257716,175.691549 155.720064,175.360386 C161.736204,175.053325 167.75954,174.902446 173.779518,174.702881 C186.226339,174.292181 198.680357,174.124912 211.128618,173.863163 C223.31827,173.60527 235.50984,173.518503 247.701891,173.486688 C250.865174,173.478975 254.030856,173.473191 257.194619,173.467888 C259.998537,173.464032 262.837479,173.411007 265.624603,173.759524 C266.263689,173.6877 266.902775,173.616357 267.54378,173.545015 C268.80324,173.224939 269.897651,172.610817 270.829411,171.70506 C272.163719,170.394868 272.95298,168.581425 272.997601,166.707727 C272.99904,166.650364 273,166.593001 273,166.535638 C273,164.659047 272.258718,162.821502 270.953198,161.477086 C270.471485,161.094344 269.989771,160.714495 269.508058,160.332235 C268.420844,159.680514 267.245828,159.335854 265.978692,159.298254 C263.041871,158.930938 260.048915,159.004691 257.095302,159.008547 C253.62591,159.013849 250.155079,159.021562 246.685687,159.029275 C241.016438,159.043736 235.34719,159.070248 229.675543,159.13436 C216.815139,159.279455 203.958094,159.569644 191.099129,159.821752 C179.051976,160.057471 167.000506,160.341394 154.968706,160.957444 C141.099295,161.66701 127.230364,162.377059 113.363352,163.081322 C111.597709,163.171464 109.830627,163.171464 108.064984,163.199905 C103.585626,163.273175 99.1043479,163.346928 94.6249892,163.420198 C92.3181386,163.459726 90.0031316,163.555652 87.6943619,163.531068 C84.4874174,163.499253 81.2809527,163.463582 78.0759274,163.429839 C72.213322,163.367656 66.3511964,163.345 60.4905102,163.162306 C54.1217219,162.964186 47.7399792,162.874044 41.3774283,162.529384 C35.0292711,162.186652 28.6700787,161.941774 22.3334367,161.433702 C19.2205319,161.18304 16.1095462,160.93045 13,160.666773 L13,175.165641 C16.3230547,175.443298 19.6475487,175.706493 22.9725226,175.974026 C29.2194431,176.474868 35.4941917,176.691305 41.7521475,177.030181" id="Fill-4" transform="translate(143.000000, 168.500000) scale(-1, 1) translate(-143.000000, -168.500000) "></path>
                <path d="M73.0689212,81.8899334 C78.2289216,82.1392613 83.3812506,82.4019374 88.5374154,82.731832 C94.2253066,83.0946206 99.9227871,83.3982952 105.606843,83.8454644 C118.674177,84.8694724 131.735758,85.9254209 144.7959,87.0295189 C150.534135,87.5138727 156.291549,87.7951412 162.039373,88.1564997 C167.579589,88.5026029 173.121723,88.7614653 178.665295,89.0298621 C181.467288,89.1638222 184.271198,89.303503 187.072711,89.4355561 C190.007995,89.5752369 192.957662,89.5714231 195.896302,89.6386415 C202.07133,89.7802292 208.242522,89.8584123 214.419467,89.9084686 C225.993748,90.0038138 237.568508,89.9904655 249.142789,89.9980931 C254.637936,90 260.135,90 265.630146,90 C267.576294,90 269.426549,89.3311531 270.831381,87.9662859 C272.164772,86.6719742 272.953492,84.8790069 272.998082,83.025972 C272.999521,82.9711485 273,82.9158483 273,82.8619782 C273.000479,79.1025152 269.84656,75.6982132 265.983991,75.6982132 C254.561221,75.7001201 243.136533,75.7110848 231.711845,75.6796209 C219.446176,75.6438664 207.184343,75.5880895 194.922509,75.306821 C192.375113,75.2472302 189.818606,75.251044 187.273128,75.1280487 C184.083727,74.9735894 180.896245,74.8191301 177.708284,74.6646708 C172.20211,74.3981808 166.703128,74.12454 161.202228,73.7798669 C155.55557,73.4242291 149.90316,73.1300891 144.265612,72.6533628 C138.171135,72.1375451 132.080493,71.5864495 125.984098,71.1116302 C119.095627,70.5753132 112.209073,70.0313686 105.320602,69.4931447 C99.4639393,69.0350108 93.5904952,68.7313362 87.7261609,68.3551992 C77.0844391,67.6758643 66.425936,67.2363227 55.772707,66.7462482 C49.8316584,66.4726073 43.8891713,66.2251864 37.9500405,65.8824202 C32.2995476,65.5553861 26.6543287,65.2469442 21,65 L21,79.3132282 C26.895979,79.5649396 32.784766,79.9057989 38.6783476,80.2457047 C50.1351596,80.9083542 61.606835,81.3350241 73.0689212,81.8899334" id="Fill-7" transform="translate(147.000000, 77.500000) scale(-1, 1) translate(-147.000000, -77.500000) "></path>
                <path d="M25.7863247,105.894018 C37.161644,106.042201 48.5407957,105.987532 59.9180313,106.066179 C66.1829359,106.10742 72.4535891,106.079606 78.7184938,106.200934 C86.4075889,106.349116 94.0986001,106.493462 101.789132,106.637808 C107.554397,106.746188 113.316308,107.017616 119.07774,107.227661 C124.418573,107.420921 129.745994,107.62665 135.0806,107.934045 C139.583111,108.194444 144.083227,108.454362 148.585738,108.713322 C150.640347,108.831293 152.696872,108.919531 154.747649,109.072988 C162.221654,109.629272 169.69518,110.178362 177.169186,110.73033 C183.10451,111.169123 189.023547,111.888456 194.944021,112.497011 C200.948806,113.115637 206.953591,113.744813 212.956939,114.379744 C219.455616,115.065507 225.934173,115.853896 232.419916,116.661466 C238.370569,117.403338 244.305893,118.278046 250.254631,119.050129 C255.379896,119.714793 260.507077,120.357396 265.636174,121 C266.274736,120.928546 266.91282,120.857572 267.550903,120.786598 C268.808387,120.467694 269.902997,119.85722 270.832816,118.954218 C272.165031,117.652227 272.953054,115.84862 272.998084,113.98459 C272.999521,113.927523 273,113.870456 273,113.813389 C273,111.946482 272.26036,110.1165 270.956409,108.78046 C270.475451,108.400173 269.994494,108.020365 269.513536,107.639598 C268.428507,106.993158 267.252939,106.650756 265.990186,106.613351 C259.539892,105.80578 253.091514,104.985262 246.645053,104.149877 C240.825657,103.395057 235.018716,102.555836 229.195488,101.830749 C226.254173,101.465328 223.314295,101.047636 220.365316,100.738802 C216.618732,100.345567 212.872628,99.946098 209.126523,99.5509447 C203.136588,98.9198504 197.146653,98.3012245 191.154802,97.6854759 C187.507859,97.3085457 183.860437,96.9340132 180.213495,96.5594808 C178.303077,96.3628633 176.379246,96.2597589 174.46308,96.1173311 C169.987396,95.7878769 165.509316,95.4560248 161.033152,95.1241728 C158.901897,94.9668787 156.772557,94.7779341 154.640822,94.6561271 C147.161548,94.2250072 139.682273,93.7924486 132.202998,93.3618082 C126.544081,93.0361904 120.874145,92.893283 115.209959,92.6889926 C109.848526,92.4947729 104.491405,92.2957575 99.1285358,92.195051 C92.2423143,92.0636529 85.3541766,91.8536079 78.4698713,91.8032546 C65.6497628,91.7097414 52.8315704,91.6272579 40.0114619,91.5821797 C28.0354245,91.540938 16.0522015,91.5112056 4.08143354,91.1323572 C2.7209557,91.0896768 1.36095689,91.0436395 0,91 L0,105.400556 C2.27736327,105.473449 4.55472654,105.544423 6.83256886,105.616836 C13.1458567,105.81681 19.4687254,105.811535 25.7863247,105.894018" id="Fill-10" transform="translate(136.500000, 106.000000) scale(-1, 1) translate(-136.500000, -106.000000) "></path>
                <path d="M28.3671395,135.960561 C39.6910899,136.607624 51.0207713,137.224445 62.355706,137.614219 C75.9572457,138.085116 89.5573526,138.50129 103.158892,138.893464 C114.320942,139.216035 125.482515,139.511726 136.644087,139.816057 C142.578523,139.977342 148.512481,140.106467 154.445007,140.312394 C160.993136,140.539922 167.552249,140.689687 174.098467,140.997378 C180.710115,141.310349 187.323195,141.62332 193.934842,141.936291 C200.201198,142.234382 206.4623,142.694238 212.722924,143.072491 C214.549198,143.183375 216.377383,143.449784 218.198403,143.640831 C221.350923,143.972523 224.505831,144.302774 227.660261,144.634466 C229.427315,144.820232 231.182429,145.114483 232.939932,145.369852 C235.092872,145.680903 237.246767,145.993394 239.400663,146.305405 C243.245677,147.03311 247.097854,147.714734 250.912781,148.583565 C255.237287,149.568079 259.546511,150.597716 263.835199,151.728155 C265.714007,152.223053 267.655856,152.060327 269.367033,151.090693 C270.984126,150.173861 272.202438,148.628686 272.724913,146.838223 C272.91117,146.199321 273,145.543138 273,144.890315 C273,141.776445 270.97935,138.728338 267.859306,137.905109 C262.204733,136.414177 256.505745,134.961166 250.759954,133.871528 C247.297484,133.215825 243.842177,132.495799 240.353917,131.991301 C236.641193,131.455123 232.927037,130.917024 229.212403,130.380365 C226.492573,129.986751 223.73358,129.786104 221.000378,129.497614 C218.319709,129.215844 215.627579,128.82799 212.935448,128.664785 C206.69536,128.286051 200.455271,127.828595 194.208974,127.533865 C187.597805,127.220894 180.984247,126.907923 174.3726,126.594952 C167.749968,126.279581 161.115874,126.133656 154.491332,125.902767 C143.240452,125.511074 131.98193,125.282106 120.727229,124.971055 C107.516829,124.605282 94.3069071,124.228469 81.0950745,123.847815 C69.4095944,123.511803 57.7274574,123.071148 46.0524841,122.477367 C33.4767909,121.833664 20.9049184,121.203882 8.34976121,120.251049 C7.23269656,120.166566 6.11610949,120.086403 5,120 L5,134.430267 C6.18249341,134.52003 7.36498681,134.603073 8.54748022,134.693316 C15.1514862,135.193974 21.7535819,135.583748 28.3671395,135.960561" id="Fill-13" transform="translate(139.000000, 136.000000) scale(-1, 1) translate(-139.000000, -136.000000) "></path>
                <path d="M59.1262,198.601245 C65.4749115,199.076814 71.8178936,199.642496 78.1627854,200.169491 C84.4966958,200.696486 90.8377681,201.13148 97.1750206,201.601388 C103.499859,202.06988 109.835202,202.41429 116.167203,202.806823 C122.39846,203.191808 128.6407,203.406003 134.877209,203.673038 C147.294844,204.203807 159.718208,204.590679 172.143005,204.920935 C185.157457,205.26912 198.175252,205.354043 211.193525,205.499356 C223.674661,205.639479 236.148158,206.160812 248.610196,206.835478 C254.296678,207.143088 259.979818,207.571006 265.660571,207.985714 C267.529327,208.12395 269.523177,207.244524 270.839996,205.974925 C272.167797,204.694002 272.953209,202.917223 272.997613,201.083829 C272.999045,201.027685 273,200.97107 273,200.915398 C273,199.080117 272.262333,197.28022 270.963179,195.9658 C269.612938,194.600426 267.907949,193.971524 266.012932,193.83376 C259.938757,193.389329 253.862194,192.947257 247.78038,192.618888 C241.394427,192.272591 235.000835,191.911196 228.60581,191.749371 C222.460494,191.592735 216.315178,191.398827 210.167953,191.330889 C203.498392,191.255402 196.826921,191.179914 190.15736,191.098766 C177.482855,190.944017 164.815034,190.595361 152.147691,190.153289 C139.799287,189.722069 127.441334,189.329536 115.109641,188.566172 C102.486701,187.78488 89.8699679,186.961126 77.2675584,185.912327 C64.5309841,184.852676 51.7948873,183.767548 39.0396924,182.96361 C32.4374526,182.549374 25.838555,182.127118 19.2324955,181.79922 C13.821982,181.530769 8.410991,181.265149 3,181 L3,195.159975 C8.83449308,195.45579 14.6699411,195.744528 20.5044341,196.03421 C33.3937938,196.671605 46.2592807,197.639256 59.1262,198.601245" id="Fill-18" transform="translate(138.000000, 194.500000) scale(-1, 1) translate(-138.000000, -194.500000) "></path>
                <path d="M58.0603831,235.768103 C70.8945666,235.770049 83.7292295,235.770049 96.563413,235.770049 L134.724172,235.770049 C141.161637,235.770049 147.595747,235.845973 154.033691,235.933577 C160.435683,236.021181 166.828566,236.284967 173.22912,236.519064 L180.571157,236.78723 C183.666451,236.899169 186.769416,236.956111 189.860875,237.127426 C196.07016,237.471516 202.278007,237.811711 208.487291,238.161641 C220.997421,238.86296 233.511864,239.71272 246.035415,240.119592 C252.572589,240.332762 259.102094,240.631103 265.631598,240.99028 C269.545178,241.207343 272.904605,237.756716 272.998083,233.870987 C272.999521,233.813071 273,233.754669 273,233.697239 C273,231.802558 272.259852,229.947298 270.955006,228.591381 C269.619959,227.20529 267.873134,226.494236 265.985373,226.391545 C259.557016,226.036262 253.128659,225.739868 246.69455,225.530591 C240.865406,225.340296 235.04537,225.019081 229.223896,224.697866 C216.267473,223.979026 203.311529,223.248992 190.353668,222.536478 C184.882135,222.233758 179.393344,222.131066 173.916537,221.929577 C167.577822,221.699859 161.24486,221.4278 154.90279,221.340196 C148.475871,221.253078 142.055184,221.169368 135.628265,221.169368 L116.539736,221.169368 L78.3118647,221.169368 C65.5002116,221.169368 52.6861616,221.167421 39.8740292,221.163528 C27.7833492,221.157687 15.6902723,221.154281 3.59959227,221.049642 C2.39924881,221.038935 1.19986409,221.018981 0,221 L0,235.578781 C7.45037463,235.697533 14.9026667,235.723814 22.3583144,235.745228 C34.2586844,235.781243 46.1604925,235.766156 58.0603831,235.768103" id="Fill-20" transform="translate(136.500000, 231.000000) scale(-1, 1) translate(-136.500000, -231.000000) "></path>
            </g>
        </g>
    </g>
</svg>