<svg width="256" height="256" viewBox="0 0 256 256" class="icon">
  <path d="M128,0 C57.312,0 0,57.312 0,128 C0,198.688 57.312,256 128,256 C198.688,256 256,198.688 256,128 C256,57.312 198.688,0 128,0 Z M138.666667,171.274667 L138.666667,138.666667 L170.602667,138.666667 C169.973333,150.858667 168.341333,162.56 165.738667,173.642667 C156.96,172.362667 147.882667,171.637333 138.666667,171.274667 L138.666667,171.274667 Z M159.541333,194.336 C154.218667,208.522667 147.178667,220.970667 138.666667,231.2 L138.666667,192.586667 C145.770667,192.885333 152.736,193.450667 159.541333,194.336 Z M138.666667,117.333333 L138.666667,85.1733333 C147.925333,84.8106667 157.024,84.0746667 165.845333,82.784 C168.384,93.7386667 169.994667,105.301333 170.602667,117.333333 L138.666667,117.333333 Z M138.666667,63.8506667 L138.666667,24.8 C147.264,35.136 154.357333,47.7333333 159.690667,62.0906667 C152.842667,62.9866667 145.824,63.552 138.666667,63.8506667 Z M167.498667,29.0026667 C180.693333,34.2933333 192.608,42.1013333 202.592,51.8933333 C195.744,54.3893333 188.608,56.608 181.056,58.368 C177.386667,47.7866667 172.789333,37.9946667 167.498667,29.0026667 L167.498667,29.0026667 Z M90.2613333,173.642667 C87.6586667,162.56 86.016,150.858667 85.3973333,138.666667 L117.333333,138.666667 L117.333333,171.274667 C108.106667,171.637333 99.0506667,172.362667 90.2613333,173.642667 Z M117.333333,192.586667 L117.333333,231.2 C108.821333,220.970667 101.781333,208.522667 96.4586667,194.336 C103.264,193.450667 110.229333,192.885333 117.333333,192.586667 Z M85.3973333,117.333333 C86.0053333,105.301333 87.6053333,93.7386667 90.1546667,82.784 C98.976,84.0746667 108.074667,84.8106667 117.333333,85.1733333 L117.333333,117.333333 L85.3973333,117.333333 Z M96.32,62.0906667 C101.653333,47.7333333 108.746667,35.136 117.333333,24.8 L117.333333,63.8506667 C110.176,63.552 103.157333,62.9866667 96.32,62.0906667 Z M74.9333333,58.3573333 C67.3813333,56.5973333 60.2453333,54.3786667 53.408,51.8826667 C63.4026667,42.0906667 75.3066667,34.2826667 88.5013333,28.992 C83.2106667,37.9946667 78.6133333,47.7866667 74.9333333,58.3573333 L74.9333333,58.3573333 Z M69.0773333,78.816 C66.2613333,91.0933333 64.448,103.989333 63.8293333,117.333333 L21.8773333,117.333333 C23.6373333,99.648 29.76,83.232 39.1253333,69.1413333 C48.512,72.992 58.496,76.288 69.0773333,78.816 Z M69.1733333,177.610667 C58.6346667,180.128 48.6933333,183.392 39.3386667,187.210667 C29.8453333,173.045333 23.648,156.501333 21.8773333,138.666667 L63.84,138.666667 C64.4586667,152.16 66.304,165.205333 69.1733333,177.610667 Z M75.072,198.058667 C78.72,208.469333 83.264,218.122667 88.48,226.986667 C75.4346667,221.76 63.6693333,214.069333 53.7493333,204.426667 C60.5333333,201.984 67.6053333,199.786667 75.072,198.058667 L75.072,198.058667 Z M180.928,198.058667 C188.394667,199.797333 195.456,201.973333 202.250667,204.426667 C192.32,214.058667 180.554667,221.76 167.509333,226.997333 C172.725333,218.122667 177.269333,208.469333 180.928,198.058667 Z M186.826667,177.610667 C189.706667,165.205333 191.541333,152.16 192.170667,138.666667 L234.133333,138.666667 C232.352,156.501333 226.154667,173.045333 216.661333,187.210667 C207.306667,183.392 197.354667,180.128 186.826667,177.610667 L186.826667,177.610667 Z M192.170667,117.333333 C191.552,103.989333 189.728,91.0933333 186.922667,78.816 C197.504,76.288 207.498667,72.992 216.885333,69.1413333 C226.24,83.232 232.362667,99.648 234.122667,117.333333 L192.170667,117.333333 Z"></path>
</svg>
