<?xml version="1.0" standalone="no"?>
<!DOCTYPE svg PUBLIC "-//W3C//DTD SVG 20010904//EN"
 "http://www.w3.org/TR/2001/REC-SVG-20010904/DTD/svg10.dtd">
<svg version="1.0" xmlns="http://www.w3.org/2000/svg"
 width="700.000000pt" height="700.000000pt" viewBox="0 0 700.000000 700.000000"
 preserveAspectRatio="xMidYMid meet">
<metadata>
Created by potrace 1.11, written by Peter Selinger 2001-2013
</metadata>
<g transform="translate(0.000000,700.000000) scale(0.100000,-0.100000)"
fill="#000000" stroke="none">
<path d="M368 6101 c-117 -38 -221 -128 -278 -241 -34 -67 -46 -140 -71 -435
-21 -236 -18 -884 4 -1065 52 -422 219 -1117 339 -1415 147 -363 305 -600 618
-930 84 -88 215 -228 291 -311 231 -252 385 -385 578 -498 150 -88 595 -285
766 -339 283 -89 793 -137 1461 -137 461 0 721 44 979 166 157 74 252 147 605
463 113 101 266 236 340 300 306 262 394 354 522 546 150 223 261 515 307 805
34 214 113 923 141 1275 6 72 15 318 20 547 7 353 7 427 -5 473 -80 306 -426
451 -702 294 -66 -38 -154 -133 -187 -202 -39 -84 -46 -155 -56 -572 -12 -532
-33 -801 -106 -1385 -43 -346 -75 -476 -157 -633 -81 -157 -114 -191 -522
-544 -82 -71 -211 -186 -286 -255 -253 -231 -296 -261 -420 -298 -138 -40
-643 -49 -1134 -19 -381 23 -547 66 -895 231 -218 103 -273 140 -410 278 -222
221 -609 643 -675 735 -145 201 -222 404 -344 897 -128 518 -136 584 -135
1098 0 267 5 418 18 562 14 154 15 208 7 250 -34 163 -153 299 -310 354 -84
30 -218 32 -303 5z"/>
<path d="M1861 5814 c-189 -51 -345 -220 -371 -404 -17 -115 -32 -628 -27
-875 8 -399 49 -584 190 -874 114 -235 319 -484 627 -760 347 -310 477 -404
703 -501 238 -102 359 -137 622 -176 232 -35 477 -39 600 -10 180 42 369 143
560 301 281 232 618 651 765 950 194 399 267 744 296 1405 7 166 0 205 -52
314 -121 257 -430 358 -694 228 -65 -31 -178 -140 -207 -197 -59 -117 -63
-145 -93 -595 -21 -324 -106 -607 -250 -830 -108 -168 -364 -447 -474 -519
-59 -39 -67 -41 -137 -41 -151 0 -412 61 -542 126 -111 56 -169 100 -342 256
-387 351 -496 501 -535 741 -13 81 -13 438 1 761 8 197 8 270 -1 310 -43 183
-197 344 -375 390 -73 20 -192 19 -264 0z"/>
<path d="M3382 5232 c-209 -75 -349 -328 -313 -566 22 -149 90 -273 191 -350
81 -60 144 -81 250 -81 71 0 94 4 140 26 150 72 250 214 280 401 38 234 -92
483 -292 560 -77 29 -189 34 -256 10z"/>
</g>
</svg>
